<?xml version="1.0" encoding="UTF-8" standalone="no"?><!DOCTYPE svg PUBLIC "-//W3C//DTD SVG 1.1//EN" "http://www.w3.org/Graphics/SVG/1.1/DTD/svg11.dtd"><svg width="100%" height="100%" viewBox="0 0 200 100" version="1.1" xmlns="http://www.w3.org/2000/svg" xmlns:xlink="http://www.w3.org/1999/xlink" xml:space="preserve" xmlns:serif="http://www.serif.com/" style="fill-rule:evenodd;clip-rule:evenodd;stroke-linejoin:round;stroke-miterlimit:1.41421;"><g><g id="Ebene1"><g transform="matrix(1,0,0,1,-53.7129,-5.82564)"><path d="M68.467,44.709c-2.048,0 -3.552,-0.816 -4.512,-2.448l0,1.872l-6.96,0l0,-31.536l6.96,-3.12l0,11.904c1.12,-1.568 2.752,-2.352 4.896,-2.352c2.944,0 5.376,1.168 7.296,3.504c1.92,2.336 2.88,5.44 2.88,9.312c0,4.096 -0.944,7.264 -2.832,9.504c-1.888,2.24 -4.464,3.36 -7.728,3.36Zm-0.768,-6.72c1.408,0 2.488,-0.544 3.24,-1.632c0.752,-1.088 1.128,-2.592 1.128,-4.512c0,-1.952 -0.376,-3.456 -1.128,-4.512c-0.752,-1.056 -1.832,-1.584 -3.24,-1.584c-1.632,0 -2.88,0.528 -3.744,1.584l0,9.12c0.8,1.024 2.048,1.536 3.744,1.536Z" style="fill:#fff;fill-rule:nonzero;"/><path d="M99.955,44.133l0,-2.256c-1.536,1.888 -3.776,2.832 -6.72,2.832c-0.992,0 -1.952,-0.152 -2.88,-0.456c-0.928,-0.304 -1.824,-0.792 -2.688,-1.464c-0.864,-0.672 -1.56,-1.632 -2.088,-2.88c-0.528,-1.248 -0.792,-2.704 -0.792,-4.368l0,-15.936l6.96,0l0,12.768c0,1.952 0.288,3.376 0.864,4.272c0.576,0.896 1.6,1.344 3.072,1.344c1.472,0 2.552,-0.448 3.24,-1.344c0.688,-0.896 1.032,-2.288 1.032,-4.176l0,-12.864l6.96,0l0,24.528l-6.96,0Z" style="fill:#fff;fill-rule:nonzero;"/><path d="M122.515,44.709c-2.016,0 -3.952,-0.424 -5.808,-1.272c-1.856,-0.848 -3.28,-1.976 -4.272,-3.384l4.464,-3.792c0.672,0.672 1.536,1.296 2.592,1.872c1.056,0.576 2.128,0.864 3.216,0.864c2.272,0 3.408,-0.64 3.408,-1.92c0,-0.576 -0.296,-1.048 -0.888,-1.416c-0.592,-0.368 -1.688,-0.856 -3.288,-1.464c-3.04,-1.024 -5.248,-2.12 -6.624,-3.288c-1.376,-1.168 -2.064,-2.808 -2.064,-4.92c0,-2.144 0.872,-3.84 2.616,-5.088c1.744,-1.248 3.912,-1.872 6.504,-1.872c3.712,0 6.784,1.36 9.216,4.08l-4.512,3.696c-1.504,-1.376 -3.072,-2.064 -4.704,-2.064c-1.92,0 -2.88,0.528 -2.88,1.584c0,0.992 1.6,1.888 4.8,2.688c1.152,0.384 2.104,0.744 2.856,1.08c0.752,0.336 1.576,0.816 2.472,1.44c0.896,0.624 1.576,1.4 2.04,2.328c0.464,0.928 0.696,2 0.696,3.216c0,2.4 -0.888,4.272 -2.664,5.616c-1.776,1.344 -4.168,2.016 -7.176,2.016Z" style="fill:#fff;fill-rule:nonzero;"/><path d="M141.907,17.253c-1.088,0 -2.032,-0.392 -2.832,-1.176c-0.8,-0.784 -1.2,-1.72 -1.2,-2.808c0,-1.088 0.392,-2.016 1.176,-2.784c0.784,-0.768 1.736,-1.152 2.856,-1.152c1.12,0 2.064,0.376 2.832,1.128c0.768,0.752 1.152,1.688 1.152,2.808c0,1.088 -0.384,2.024 -1.152,2.808c-0.768,0.784 -1.712,1.176 -2.832,1.176Zm-3.504,26.88l0,-24.528l6.96,0l0,24.528l-6.96,0Z" style="fill:#fff;fill-rule:nonzero;"/><path d="M167.779,44.133l0,-12.768c0,-1.984 -0.296,-3.416 -0.888,-4.296c-0.592,-0.88 -1.592,-1.32 -3,-1.32c-1.504,0 -2.6,0.448 -3.288,1.344c-0.688,0.896 -1.032,2.288 -1.032,4.176l0,12.864l-6.96,0l0,-24.528l6.96,0l0,2.256c1.568,-1.888 3.792,-2.832 6.672,-2.832c2.272,0 4.256,0.72 5.952,2.16c1.696,1.44 2.544,3.776 2.544,7.008l0,15.936l-6.96,0Z" style="fill:#fff;fill-rule:nonzero;"/><path d="M192.163,44.709c-3.616,0 -6.464,-1.136 -8.544,-3.408c-2.08,-2.272 -3.12,-5.424 -3.12,-9.456c0,-3.936 1.048,-7.056 3.144,-9.36c2.096,-2.304 4.936,-3.456 8.52,-3.456c3.264,0 5.92,0.992 7.968,2.976c2.048,1.984 3.072,4.864 3.072,8.64c0,1.568 -0.064,2.768 -0.192,3.6l-15.696,0c0.064,1.536 0.544,2.68 1.44,3.432c0.896,0.752 2.032,1.128 3.408,1.128c2.24,0 4.08,-0.864 5.52,-2.592l4.032,4.032c-2.464,2.976 -5.648,4.464 -9.552,4.464Zm-4.8,-15.696l9.168,0c-0.352,-2.72 -1.904,-4.08 -4.656,-4.08c-1.248,0 -2.272,0.36 -3.072,1.08c-0.8,0.72 -1.28,1.72 -1.44,3Z" style="fill:#fff;fill-rule:nonzero;"/><path d="M216.979,44.709c-2.016,0 -3.952,-0.424 -5.808,-1.272c-1.856,-0.848 -3.28,-1.976 -4.272,-3.384l4.464,-3.792c0.672,0.672 1.536,1.296 2.592,1.872c1.056,0.576 2.128,0.864 3.216,0.864c2.272,0 3.408,-0.64 3.408,-1.92c0,-0.576 -0.296,-1.048 -0.888,-1.416c-0.592,-0.368 -1.688,-0.856 -3.288,-1.464c-3.04,-1.024 -5.248,-2.12 -6.624,-3.288c-1.376,-1.168 -2.064,-2.808 -2.064,-4.92c0,-2.144 0.872,-3.84 2.616,-5.088c1.744,-1.248 3.912,-1.872 6.504,-1.872c3.712,0 6.784,1.36 9.216,4.08l-4.512,3.696c-1.504,-1.376 -3.072,-2.064 -4.704,-2.064c-1.92,0 -2.88,0.528 -2.88,1.584c0,0.992 1.6,1.888 4.8,2.688c1.152,0.384 2.104,0.744 2.856,1.08c0.752,0.336 1.576,0.816 2.472,1.44c0.896,0.624 1.576,1.4 2.04,2.328c0.464,0.928 0.696,2 0.696,3.216c0,2.4 -0.888,4.272 -2.664,5.616c-1.776,1.344 -4.168,2.016 -7.176,2.016Z" style="fill:#fff;fill-rule:nonzero;"/><path d="M241.219,44.709c-2.016,0 -3.952,-0.424 -5.808,-1.272c-1.856,-0.848 -3.28,-1.976 -4.272,-3.384l4.464,-3.792c0.672,0.672 1.536,1.296 2.592,1.872c1.056,0.576 2.128,0.864 3.216,0.864c2.272,0 3.408,-0.64 3.408,-1.92c0,-0.576 -0.296,-1.048 -0.888,-1.416c-0.592,-0.368 -1.688,-0.856 -3.288,-1.464c-3.04,-1.024 -5.248,-2.12 -6.624,-3.288c-1.376,-1.168 -2.064,-2.808 -2.064,-4.92c0,-2.144 0.872,-3.84 2.616,-5.088c1.744,-1.248 3.912,-1.872 6.504,-1.872c3.712,0 6.784,1.36 9.216,4.08l-4.512,3.696c-1.504,-1.376 -3.072,-2.064 -4.704,-2.064c-1.92,0 -2.88,0.528 -2.88,1.584c0,0.992 1.6,1.888 4.8,2.688c1.152,0.384 2.104,0.744 2.856,1.08c0.752,0.336 1.576,0.816 2.472,1.44c0.896,0.624 1.576,1.4 2.04,2.328c0.464,0.928 0.696,2 0.696,3.216c0,2.4 -0.888,4.272 -2.664,5.616c-1.776,1.344 -4.168,2.016 -7.176,2.016Z" style="fill:#fff;fill-rule:nonzero;"/><path d="M56.995,86.671l0,-31.44l6.96,-3.216l0,12.384c1.568,-1.888 3.792,-2.832 6.672,-2.832c2.272,0 4.256,0.72 5.952,2.16c1.696,1.44 2.544,3.776 2.544,7.008l0,15.936l-6.96,0l0,-13.152c0,-1.824 -0.296,-3.152 -0.888,-3.984c-0.592,-0.832 -1.592,-1.248 -3,-1.248c-2.88,0 -4.32,1.712 -4.32,5.136l0,13.248l-6.96,0Z" style="fill:#fff;fill-rule:nonzero;"/><path d="M96.259,87.247c-3.52,0 -6.296,-1.136 -8.328,-3.408c-2.032,-2.272 -3.048,-5.408 -3.048,-9.408c0,-3.968 1.024,-7.104 3.072,-9.408c2.048,-2.304 4.816,-3.456 8.304,-3.456c3.456,0 6.2,1.152 8.232,3.456c2.032,2.304 3.048,5.44 3.048,9.408c0,4 -1.008,7.136 -3.024,9.408c-2.016,2.272 -4.768,3.408 -8.256,3.408Zm0,-6.72c1.376,0 2.44,-0.536 3.192,-1.608c0.752,-1.072 1.128,-2.568 1.128,-4.488c0,-1.92 -0.376,-3.424 -1.128,-4.512c-0.752,-1.088 -1.816,-1.632 -3.192,-1.632c-1.344,0 -2.416,0.544 -3.216,1.632c-0.8,1.088 -1.2,2.592 -1.2,4.512c0,1.92 0.4,3.416 1.2,4.488c0.8,1.072 1.872,1.608 3.216,1.608Z" style="fill:#fff;fill-rule:nonzero;"/><path d="M113.539,86.671l0,-24.528l6.96,0l0,2.208c0.32,-0.64 0.896,-1.264 1.728,-1.872c0.832,-0.608 1.808,-0.912 2.928,-0.912c1.92,0 3.536,0.688 4.848,2.064l-0.912,6.336c-1.344,-1.12 -2.8,-1.68 -4.368,-1.68c-2.816,0 -4.224,1.696 -4.224,5.088l0,13.296l-6.96,0Z" style="fill:#fff;fill-rule:nonzero;"/><path d="M137.539,59.791c-1.088,0 -2.032,-0.392 -2.832,-1.176c-0.8,-0.784 -1.2,-1.72 -1.2,-2.808c0,-1.088 0.392,-2.016 1.176,-2.784c0.784,-0.768 1.736,-1.152 2.856,-1.152c1.12,0 2.064,0.376 2.832,1.128c0.768,0.752 1.152,1.688 1.152,2.808c0,1.088 -0.384,2.024 -1.152,2.808c-0.768,0.784 -1.712,1.176 -2.832,1.176Zm-3.504,26.88l0,-24.528l6.96,0l0,24.528l-6.96,0Z" style="fill:#fff;fill-rule:nonzero;"/><path d="M147.283,86.671l0,-5.376l12.48,-12.96l-11.616,0l0,-6.192l20.64,0l0,5.232l-12.432,13.056l12.384,0l0,6.24l-21.456,0Z" style="fill:#fff;fill-rule:nonzero;"/><path d="M185.059,87.247c-3.52,0 -6.296,-1.136 -8.328,-3.408c-2.032,-2.272 -3.048,-5.408 -3.048,-9.408c0,-3.968 1.024,-7.104 3.072,-9.408c2.048,-2.304 4.816,-3.456 8.304,-3.456c3.456,0 6.2,1.152 8.232,3.456c2.032,2.304 3.048,5.44 3.048,9.408c0,4 -1.008,7.136 -3.024,9.408c-2.016,2.272 -4.768,3.408 -8.256,3.408Zm0,-6.72c1.376,0 2.44,-0.536 3.192,-1.608c0.752,-1.072 1.128,-2.568 1.128,-4.488c0,-1.92 -0.376,-3.424 -1.128,-4.512c-0.752,-1.088 -1.816,-1.632 -3.192,-1.632c-1.344,0 -2.416,0.544 -3.216,1.632c-0.8,1.088 -1.2,2.592 -1.2,4.512c0,1.92 0.4,3.416 1.2,4.488c0.8,1.072 1.872,1.608 3.216,1.608Z" style="fill:#fff;fill-rule:nonzero;"/><path d="M217.507,86.671l0,-12.768c0,-1.984 -0.296,-3.416 -0.888,-4.296c-0.592,-0.88 -1.592,-1.32 -3,-1.32c-1.504,0 -2.6,0.448 -3.288,1.344c-0.688,0.896 -1.032,2.288 -1.032,4.176l0,12.864l-6.96,0l0,-24.528l6.96,0l0,2.256c1.568,-1.888 3.792,-2.832 6.672,-2.832c2.272,0 4.256,0.72 5.952,2.16c1.696,1.44 2.544,3.776 2.544,7.008l0,15.936l-6.96,0Z" style="fill:#fff;fill-rule:nonzero;"/></g></g><g id="Ebene2"><rect x="2.654" y="89.461" width="194.628" height="7.032" style="fill:#0d9a39;"/></g></g></svg>